<svg width="66" height="30" fill="none" xmlns="http://www.w3.org/2000/svg"><path fill-rule="evenodd" clip-rule="evenodd" d="M15.005 11.854l2.515 6.866-4.925.045c.06-.557.931-2.748 1.164-3.437l1.164-3.341c.064-.123.037-.073.082-.133zm28.268.8h3.35v4.879l-3.35.004c-.43 1.721-1.753 3.319-3.154 4.323-5.071 3.638-12.867.165-12.895-6.728-.018-4.296 3.145-7.56 6.938-8.166 4.026-.64 8.153 1.98 9.111 5.687zM.65 29.738v.063l7.65.01 1.557-4.104c.136-.278-.005-.118.187-.219l10.037.01c.146.492 1.52 4.025 1.702 4.249l7.97.068-.438-1.127c2.168.675 3.848 1.342 6.755 1.31 3.3-.041 6.459-1.53 8.572-3.227.38-.302.648-.52 1-.886.32-.324.639-.639.972-.967l.01 5.08h7.11v-5.414c0-.853-.104-4.948.042-5.436l11.356-.028v-6.66l-11.338.005-.064-.087c-.068-.228-.027-2.332-.027-2.597 0-.557-.133-2.383.073-2.761l12.091-.028V.105H46.596l.027 5.172c-1.232-1.155-1-1.16-2.61-2.333C40.79.598 36.261-.366 32.203.571c-2.825.652-5.19 1.967-7.207 3.948-.228.224-.375.406-.607.635-.904.876-2.146 2.916-2.652 4.194l-.224.448c-.292-.909-2.474-6.003-3.026-7.354-.27-.657-.712-1.922-1.04-2.442H12.43L.65 29.739z" fill="#000"/></svg>