<svg width="32" height="32" fill="none" xmlns="http://www.w3.org/2000/svg"><path d="M21.334 29.333v-5.16a4.494 4.494 0 00-1.254-3.48c4.187-.466 8.587-2.053 8.587-9.333a7.253 7.253 0 00-2-5 6.76 6.76 0 00-.12-5.027s-1.573-.466-5.213 1.974a17.84 17.84 0 00-9.334 0C8.36.867 6.787 1.333 6.787 1.333a6.76 6.76 0 00-.12 5.027 7.253 7.253 0 00-2 5.04c0 7.227 4.4 8.813 8.587 9.333A4.494 4.494 0 0012 24.173v5.16m0-4c-6.666 2-6.666-3.333-9.333-4l9.333 4z" stroke="#fff" stroke-width="2.437" stroke-linecap="round" stroke-linejoin="round"/></svg>