<svg width="48" height="58" fill="none" xmlns="http://www.w3.org/2000/svg"><path d="M42.997.593c-7.133-.1-12.606 28.13-12.455 39.699 2.364-7.786 5.963-12.592 9.762-13.426-6.3 6.578-8.139 18.2-7.497 29.278-4.042.953-7.095 1.342-8.09.556l.032-4.073c.125.502.309.828.587.88.716-9.092-1.455-17.006-9.222-18.966 4.92-.26 7.92 1.925 10.33 7.234.16-21.854 7.369-42.153 16.553-41.77 1.43.06 2.796 1.01 4.123 2.795C45.953 1.553 44.164.61 42.997.593zM9.707 43.576C7.775 39.213 3.87 35.658.878 35.409c4.487 4.071 7.993 12.07 8.04 20.547-.884-2.088-.764-2.292-1.207-3.433-.07 1.91.387 2.452.373 5.286 2.536.343 4.926.295 6.948-.74-.45-6.541-.394-12.589 5.188-13.249-2.909-.247-4.26.35-6.293 1.795-.655-11.402-2.786-23.38-5.01-33.757.461 12.463.813 23.89.788 31.718z" fill="#000"/></svg>