<svg width="58" height="58" fill="none" xmlns="http://www.w3.org/2000/svg"><path d="M3.25 14.75C5.667 10.25 9.146 6.667 13.688 4c4.541-2.667 9.562-4 15.062-4 6.917 0 13.167 2.458 18.75 7.375-1.5-.25-3 .042-4.5.875-2 1.167-3.104 2.938-3.313 5.313-.208 2.374.855 4.354 3.188 5.937 2.667 1.667 4 4.833 4 9.5 0 .833-.583 2.583-1.75 5.25a124.22 124.22 0 01-3.5 7.375L39.875 45l-6.75-23c-.167-1.083-.25-1.792-.25-2.125 0-.667.208-1.208.625-1.625.417-.583.75-.875 1-.875h3.25V14.75H20.375v2.625H21c.25 0 .792.417 1.625 1.25.167.167.958 2.042 2.375 5.625l2.5 8.375-5.375 12.5-6-25c.167-1.167.375-1.833.625-2 .25-.5.583-.75 1-.75h.125V14.75H3.25zm3.375 4.375c-.917-1.167-1.875-1.75-2.875-1.75h-1.5C.75 20.542 0 24.333 0 28.75c0 5.833 1.625 11.125 4.875 15.875s7.5 8.25 12.75 10.5l-11-36zm46.875-4.5c.667 2.75.458 5.792-.625 9.125-2.25 7.333-6.375 17.833-12.375 31.5 5.167-2.25 9.292-5.73 12.375-10.438S57.5 34.876 57.5 29.126c0-5.333-1.333-10.167-4-14.5zm-24.125 24.25l-7.375 18c2.5.583 4.75.875 6.75.875s4.333-.292 7-.875l-6.375-18z" fill="#000"/></svg>