<svg width="48" height="48" viewBox="0 0 48 48" fill="none" xmlns="http://www.w3.org/2000/svg">
<path d="M4 47H44C45.7 47 47 45.7 47 44V4C47 2.3 45.7 1 44 1H4C2.3 1 1 2.3 1 4V44C1 45.7 2.3 47 4 47Z" stroke="black" stroke-width="2" stroke-miterlimit="10"/>
<path d="M47 9H1" stroke="black" stroke-width="2" stroke-miterlimit="10"/>
<path d="M4 5H6" stroke="black" stroke-width="2" stroke-miterlimit="10"/>
<path d="M8 5H10" stroke="black" stroke-width="2" stroke-miterlimit="10"/>
<path d="M12 5H14" stroke="black" stroke-width="2" stroke-miterlimit="10"/>
<path d="M17 5H43" stroke="black" stroke-width="2" stroke-miterlimit="10"/>
<path d="M26 25.8572L43 25.8572L43 12.9572L26 12.9572L26 25.8572Z" stroke="black" stroke-width="2" stroke-miterlimit="10"/>
<path d="M43 25.9L26 13" stroke="black" stroke-width="2" stroke-miterlimit="10"/>
<path d="M26 25.9L43 13" stroke="black" stroke-width="2" stroke-miterlimit="10"/>
<path d="M5 25.8571L22 25.8571L22 12.9571L5 12.9571L5 25.8571Z" stroke="black" stroke-width="2" stroke-miterlimit="10"/>
<path d="M5 43.0428L44 43.0428L44 30.1428L5 30.1428L5 43.0428Z" stroke="black" stroke-width="2" stroke-miterlimit="10"/>
</svg>
