<svg width="48" height="49" viewBox="0 0 48 49" fill="none" xmlns="http://www.w3.org/2000/svg">
<path d="M18.5 16.5C22.6421 16.5 26 13.1421 26 9C26 4.85786 22.6421 1.5 18.5 1.5C14.3579 1.5 11 4.85786 11 9C11 13.1421 14.3579 16.5 18.5 16.5Z" stroke="black" stroke-width="2" stroke-miterlimit="10"/>
<path d="M36 29.5C35.8 25.1 32.8 21.3 28.5 20.1L27.2 19.7L18.4 28.4L9.6 19.7L8.3 20.1C4 21.4 1 25.5 1 30.1V39.5H25" stroke="black" stroke-width="2" stroke-miterlimit="10"/>
<path d="M25 29.5V43.5H39.6L45 46.5V43.5H47V29.5H25Z" stroke="black" stroke-width="2" stroke-miterlimit="10"/>
<path d="M28 34.5H44" stroke="black" stroke-width="2" stroke-miterlimit="10"/>
<path d="M31 38.5H41" stroke="black" stroke-width="2" stroke-miterlimit="10"/>
</svg>
