<svg width="60" height="60" viewBox="0 0 60 60" fill="none" xmlns="http://www.w3.org/2000/svg">
<path d="M38 48H35V46H37V42H23V46H29V48H22C21.447 48 21 47.553 21 47V41C21 40.447 21.447 40 22 40H38C38.553 40 39 40.447 39 41V47C39 47.553 38.553 48 38 48Z" fill="black"/>
<path d="M33 46H31V48H33V46Z" fill="black"/>
<path d="M36 52H24C23.447 52 23 51.553 23 51C23 50.447 23.447 50 24 50H36C36.553 50 37 50.447 37 51C37 51.553 36.553 52 36 52Z" fill="black"/>
<path d="M35 56H25C24.447 56 24 55.553 24 55C24 54.447 24.447 54 25 54H35C35.553 54 36 54.447 36 55C36 55.553 35.553 56 35 56Z" fill="black"/>
<path d="M34 60H26C25.447 60 25 59.553 25 59C25 58.447 25.447 58 26 58H34C34.553 58 35 58.447 35 59C35 59.553 34.553 60 34 60Z" fill="black"/>
<path d="M37.007 42H23.069C22.516 42 22.069 41.553 22.069 41V36.633C15.322 33.506 11 26.731 11 19.189C11 8.608 19.523 0 30 0C40.477 0 49 8.608 49 19.189C49 26.693 44.707 33.454 38.007 36.597V41C38.007 41.553 37.56 42 37.007 42ZM24.069 40H36.007V35.95C36.007 35.55 36.246 35.188 36.613 35.03C42.923 32.333 47 26.115 47 19.189C47 9.711 39.374 2 30 2C20.626 2 13 9.711 13 19.189C13 26.15 17.105 32.379 23.458 35.061C23.828 35.217 24.069 35.58 24.069 35.982V40Z" fill="black"/>
<path d="M28.138 6.27394L27.855 4.29394C28.557 4.19294 29.278 4.14294 30 4.14294V6.14294C29.373 6.14294 28.747 6.18694 28.138 6.27394Z" fill="black"/>
<path d="M17 19.143H15C15 12.529 19.427 6.61005 25.767 4.74805L26.33 6.66805C20.837 8.28005 17 13.41 17 19.143Z" fill="black"/>
<path d="M29.0001 32C28.9011 32 28.8011 31.985 28.7021 31.955C28.2451 31.812 27.9531 31.365 28.0061 30.89L28.8831 23H24.0001C23.6481 23 23.3221 22.815 23.1421 22.513C22.9611 22.211 22.9541 21.836 23.1201 21.527L30.1201 8.52695C30.3481 8.10595 30.8421 7.90495 31.2991 8.04595C31.7561 8.18895 32.0481 8.63595 31.9951 9.11095L31.1171 17H36.0001C36.3521 17 36.6781 17.185 36.8581 17.487C37.0391 17.789 37.0461 18.164 36.8801 18.473L29.8801 31.473C29.7021 31.805 29.3601 32 29.0001 32ZM25.6741 21H30.0001C30.2841 21 30.5561 21.121 30.7451 21.333C30.9341 21.545 31.0251 21.828 30.9941 22.11L30.5631 25.988L34.3261 19H30.0001C29.7161 19 29.4441 18.879 29.2551 18.667C29.0661 18.455 28.9751 18.172 29.0061 17.89L29.4371 14.012L25.6741 21Z" fill="black"/>
<path d="M59 12H57V14H59V12Z" fill="black"/>
<path d="M2 20H0V22H2V20Z" fill="black"/>
<path d="M8 14.031H6V16.031H8V14.031Z" fill="black"/>
<path d="M56 17H54V19H56V17Z" fill="black"/>
<path d="M6 9C4.346 9 3 7.654 3 6C3 4.346 4.346 3 6 3C7.654 3 9 4.346 9 6C9 7.654 7.654 9 6 9ZM6 5C5.448 5 5 5.448 5 6C5 6.552 5.448 7 6 7C6.552 7 7 6.552 7 6C7 5.448 6.552 5 6 5Z" fill="black"/>
<path d="M56 31.453C53.794 31.453 52 29.659 52 27.453C52 25.247 53.794 23.453 56 23.453C58.206 23.453 60 25.247 60 27.453C60 29.659 58.206 31.453 56 31.453ZM56 25.453C54.897 25.453 54 26.35 54 27.453C54 28.556 54.897 29.453 56 29.453C57.103 29.453 58 28.556 58 27.453C58 26.35 57.103 25.453 56 25.453Z" fill="black"/>
<path d="M12 45C9.794 45 8 43.206 8 41C8 38.794 9.794 37 12 37C14.206 37 16 38.794 16 41C16 43.206 14.206 45 12 45ZM12 39C10.897 39 10 39.897 10 41C10 42.103 10.897 43 12 43C13.103 43 14 42.103 14 41C14 39.897 13.103 39 12 39Z" fill="black"/>
<path d="M7 33C6.447 33 6 32.553 6 32V28C6 27.447 6.447 27 7 27C7.553 27 8 27.447 8 28V32C8 32.553 7.553 33 7 33Z" fill="black"/>
<path d="M9 31H5C4.447 31 4 30.553 4 30C4 29.447 4.447 29 5 29H9C9.553 29 10 29.447 10 30C10 30.553 9.553 31 9 31Z" fill="black"/>
<path d="M53 8C52.447 8 52 7.553 52 7V3C52 2.447 52.447 2 53 2C53.553 2 54 2.447 54 3V7C54 7.553 53.553 8 53 8Z" fill="black"/>
<path d="M55 6H51C50.447 6 50 5.553 50 5C50 4.447 50.447 4 51 4H55C55.553 4 56 4.447 56 5C56 5.553 55.553 6 55 6Z" fill="black"/>
</svg>
