<svg width="48" height="45" viewBox="0 0 48 45" fill="none" xmlns="http://www.w3.org/2000/svg">
<path d="M40 9L24 16L8 9L24 2L40 9Z" stroke="black" stroke-width="2" stroke-miterlimit="10"/>
<path d="M13 11.2V21C13 21 20 20 24 26C28 20 35 21 35 21V11.2" stroke="black" stroke-width="2" stroke-miterlimit="10"/>
<path d="M39 9.40002V25" stroke="black" stroke-width="2" stroke-miterlimit="10"/>
<path d="M41 30H37V27C37 25.9 37.9 25 39 25C40.1 25 41 25.9 41 27V30Z" stroke="black" stroke-width="2" stroke-miterlimit="10"/>
<path d="M43 44H24H5L1 40V36H24H47V40L43 44Z" stroke="black" stroke-width="2" stroke-miterlimit="10"/>
<path d="M14.9 6H3V36H45V6H33.1" stroke="black" stroke-width="2" stroke-miterlimit="10"/>
<path d="M19 40H29" stroke="black" stroke-width="2" stroke-miterlimit="10" stroke-dasharray="2 2"/>
</svg>
