<svg width="66" height="30" viewBox="0 0 66 30" fill="none" xmlns="http://www.w3.org/2000/svg">
<path fill-rule="evenodd" clip-rule="evenodd" d="M15.0053 11.8544L17.5203 18.7196L12.5951 18.7653C12.6545 18.2083 13.5264 16.0174 13.759 15.3281L14.9232 11.9867C14.9869 11.8635 14.9596 11.9138 15.0053 11.8544ZM43.2731 12.6533H46.6233V17.5327L43.2731 17.5373C42.8439 19.2582 41.5204 20.856 40.1191 21.86C35.0478 25.4982 27.2517 22.0245 27.2244 15.1319C27.206 10.8365 30.3693 7.57273 34.1624 6.96576C38.1883 6.32667 42.3145 8.9468 43.2731 12.6533ZM0.649902 29.7388V29.8025L8.29989 29.8117L9.85651 25.7081C9.99345 25.4296 9.85192 25.5895 10.0437 25.489L20.0809 25.4982C20.227 25.9912 21.6008 29.524 21.7834 29.7477L29.7531 29.8163L29.3148 28.6888C31.4829 29.3644 33.1627 30.0308 36.0704 29.9989C39.3703 29.9578 42.529 28.4698 44.6423 26.7716C45.0212 26.4704 45.2905 26.2513 45.6419 25.8861C45.9615 25.562 46.281 25.247 46.6143 24.9185L46.6233 29.9989H53.7349V24.5852C53.7349 23.7316 53.6298 19.6372 53.7759 19.1488L65.1323 19.1213V12.4616L53.7941 12.4661L53.7303 12.3794C53.6617 12.1512 53.7028 10.0467 53.7028 9.78201C53.7028 9.22529 53.5704 7.39931 53.7759 7.02059L65.8673 6.99305V0.105067H46.596L46.6233 5.27673C45.391 4.12197 45.6238 4.11738 44.0124 2.94426C40.79 0.59803 36.2619 -0.365195 32.2041 0.570738C29.3788 1.22336 27.0143 2.53801 24.9968 4.51905C24.7686 4.74271 24.6225 4.9253 24.3899 5.15355C23.4861 6.02982 22.2444 8.07028 21.7377 9.34847L21.5141 9.79578C21.2221 8.88738 19.0402 3.79325 18.4878 2.44212C18.2185 1.78492 17.7758 0.5205 17.4473 0H12.4309L0.649902 29.7388Z" fill="black"/>
</svg>
