<svg width="33" height="33" viewBox="0 0 33 33" fill="none" xmlns="http://www.w3.org/2000/svg">
<g clip-path="url(#clip0)">
<path d="M16.889 17.9073C16.946 16.8393 17.472 15.8963 18.258 15.2303C19.0881 14.5435 20.1336 14.171 21.211 14.1783C22.342 14.1783 23.383 14.5793 24.159 15.2303C24.946 15.8973 25.466 16.8393 25.528 17.9073C25.585 19.0003 25.148 20.0223 24.372 20.7763C23.5213 21.5888 22.3874 22.0376 21.211 22.0273C20.0313 22.0383 18.8937 21.5896 18.039 20.7763C17.268 20.0213 16.826 19.0003 16.888 17.9073H16.889ZM10.009 20.0633C10.013 20.4803 10.149 21.2923 10.346 21.9273C10.7776 23.2918 11.503 24.5452 12.471 25.5993C13.5079 26.7402 14.7729 27.6505 16.184 28.2713C17.722 28.9473 19.3851 29.2917 21.065 29.2823C22.7456 29.2874 24.4085 28.9382 25.945 28.2573C27.355 27.6296 28.6194 26.716 29.658 25.5743C30.6223 24.5141 31.3455 23.2576 31.778 21.8913C32.1947 20.5672 32.3085 19.1663 32.111 17.7923C31.9248 16.4764 31.4631 15.2146 30.756 14.0893C30.1044 13.0396 29.2678 12.1167 28.287 11.3653L18.267 3.66631C17.611 3.16131 16.507 3.16631 15.788 3.66631C15.059 4.17731 14.975 5.02131 15.62 5.55731L19.788 8.94831L7.06402 8.96431C6.01102 8.96431 5.00702 9.65131 4.80302 10.5273C4.60002 11.4123 5.30802 12.1473 6.40202 12.1513L12.845 12.1423L1.30402 20.9953C0.221019 21.8233 -0.127981 23.2083 0.555019 24.0793C1.24702 24.9703 2.72202 24.9703 3.82002 24.0843L10.091 18.9533C10.091 18.9533 9.99802 19.6463 10.008 20.0623L10.009 20.0633ZM26.127 22.3803C24.831 23.6993 23.023 24.4483 21.066 24.4483C19.107 24.4533 17.294 23.7133 16.003 22.4013C15.3924 21.7865 14.9214 21.0474 14.622 20.2343C14.348 19.4702 14.2399 18.6565 14.3047 17.8473C14.3695 17.0382 14.6059 16.2521 14.998 15.5413C15.3895 14.8401 15.9108 14.2198 16.534 13.7133C17.79 12.6933 19.389 12.1413 21.066 12.1363C22.737 12.1363 24.337 12.6833 25.591 13.7033C26.2171 14.2053 26.7389 14.8249 27.127 15.5273C27.518 16.2243 27.758 17.0003 27.826 17.8033C27.8986 18.6205 27.7904 19.4436 27.509 20.2143C27.2076 21.0264 26.7368 21.7651 26.128 22.3813L26.127 22.3803Z" fill="#333333"/>
</g>
<defs>
<clipPath id="clip0">
<rect width="32" height="32" fill="white" transform="translate(0.206055 0.287354)"/>
</clipPath>
</defs>
</svg>
