<svg width="23" height="33" viewBox="0 0 23 33" fill="none" xmlns="http://www.w3.org/2000/svg">
<path d="M16.8728 10.9524C18.2594 10.9108 19.5752 10.3307 20.5413 9.33524C21.5074 8.33974 22.0477 7.00709 22.0477 5.61989C22.0477 4.23269 21.5074 2.90003 20.5413 1.90453C19.5752 0.909028 18.2594 0.328967 16.8728 0.287354H6.20615C4.81958 0.328967 3.50373 0.909028 2.53766 1.90453C1.57158 2.90003 1.03126 4.23269 1.03126 5.61989C1.03126 7.00709 1.57158 8.33974 2.53766 9.33524C3.50373 10.3307 4.81958 10.9108 6.20615 10.9524C4.80745 10.9766 3.47423 11.5493 2.49366 12.547C1.51309 13.5447 0.963623 14.8876 0.963623 16.2866C0.963623 17.6855 1.51309 19.0284 2.49366 20.0261C3.47423 21.0238 4.80745 21.5965 6.20615 21.6207C4.81429 21.6548 3.4909 22.2317 2.51854 23.2281C1.54618 24.2246 1.00189 25.5617 1.00189 26.954C1.00189 28.3463 1.54618 29.6834 2.51854 30.6799C3.4909 31.6764 4.81429 32.2533 6.20615 32.2874C7.62066 32.2865 8.97696 31.7241 9.97702 30.7238C10.9771 29.7234 11.5391 28.3669 11.5395 26.9524V10.9524H16.8728Z" fill="#333333"/>
<path d="M16.8728 21.6186C19.8183 21.6186 22.2061 19.2308 22.2061 16.2853C22.2061 13.3398 19.8183 10.952 16.8728 10.952C13.9272 10.952 11.5394 13.3398 11.5394 16.2853C11.5394 19.2308 13.9272 21.6186 16.8728 21.6186Z" fill="#333333"/>
</svg>
