<svg width="32" height="32" viewBox="0 0 32 32" fill="none" xmlns="http://www.w3.org/2000/svg">
<path d="M21.3337 29.3333V24.1733C21.3837 23.5376 21.2978 22.8984 21.0817 22.2984C20.8656 21.6984 20.5242 21.1512 20.0803 20.6933C24.267 20.2267 28.667 18.64 28.667 11.36C28.6667 9.49845 27.9506 7.70828 26.667 6.36001C27.2748 4.73136 27.2318 2.93115 26.547 1.33335C26.547 1.33335 24.9737 0.86668 21.3337 3.30668C18.2777 2.47844 15.0563 2.47844 12.0003 3.30668C8.36033 0.86668 6.78699 1.33335 6.78699 1.33335C6.10216 2.93115 6.05919 4.73136 6.66699 6.36001C5.37383 7.71828 4.65702 9.52463 4.66699 11.4C4.66699 18.6267 9.06699 20.2133 13.2537 20.7333C12.815 21.1866 12.4767 21.7272 12.2607 22.3199C12.0448 22.9126 11.9561 23.5441 12.0003 24.1733V29.3333M12.0003 25.3333C5.33366 27.3333 5.33366 22 2.66699 21.3333L12.0003 25.3333Z" stroke="white" stroke-width="2.43683" stroke-linecap="round" stroke-linejoin="round"/>
</svg>
