<svg width="32" height="32" viewBox="0 0 32 32" fill="none" xmlns="http://www.w3.org/2000/svg">
<path d="M21.333 10.6667C23.4547 10.6667 25.4896 11.5095 26.9899 13.0098C28.4902 14.5101 29.333 16.5449 29.333 18.6667V28H23.9997V18.6667C23.9997 17.9594 23.7187 17.2811 23.2186 16.781C22.7185 16.2809 22.0403 16 21.333 16C20.6258 16 19.9475 16.2809 19.4474 16.781C18.9473 17.2811 18.6663 17.9594 18.6663 18.6667V28H13.333V18.6667C13.333 16.5449 14.1759 14.5101 15.6762 13.0098C17.1764 11.5095 19.2113 10.6667 21.333 10.6667Z" fill="white"/>
<path d="M8.00033 12H2.66699V28H8.00033V12Z" fill="white"/>
<path d="M5.33366 7.99999C6.80642 7.99999 8.00033 6.80608 8.00033 5.33332C8.00033 3.86056 6.80642 2.66666 5.33366 2.66666C3.8609 2.66666 2.66699 3.86056 2.66699 5.33332C2.66699 6.80608 3.8609 7.99999 5.33366 7.99999Z" fill="white"/>
</svg>
