<svg width="48" height="58" viewBox="0 0 48 58" fill="none" xmlns="http://www.w3.org/2000/svg">
<path d="M42.9974 0.593038C35.864 0.492218 30.3914 28.7238 30.5423 40.292C32.9056 32.5063 36.5054 27.6999 40.3038 26.8661C34.0041 33.4437 32.1653 45.0665 32.8068 56.1439C28.7655 57.0966 25.7117 57.4857 24.7165 56.7001L24.7491 52.6267C24.8737 53.1285 25.0579 53.4551 25.3356 53.5066C26.0525 44.415 23.8809 36.5009 16.1137 34.5413C21.0342 34.2806 24.0349 36.4657 26.4436 41.7754C26.6044 19.9212 33.8125 -0.377669 42.9974 0.00533487C44.4278 0.0650341 45.7929 1.01467 47.1203 2.79953C45.9531 1.55298 44.1638 0.609464 42.9974 0.593038ZM9.70638 43.576C7.77596 39.2127 3.87013 35.6585 0.879395 35.4092C5.36567 39.4801 8.87207 47.4796 8.9184 55.9564C8.03548 53.8684 8.15477 53.6645 7.71218 52.523C7.64228 54.4332 8.09915 54.9749 8.08465 57.8094C10.6206 58.1519 13.0109 58.1042 15.0329 57.0682C14.5833 50.5275 14.6393 44.48 20.2209 43.8201C17.3124 43.5734 15.9603 44.1694 13.9276 45.6151C13.2732 34.2133 11.1419 22.2342 8.9184 11.8582C9.379 24.3207 9.73119 35.7484 9.70638 43.576Z" fill="black"/>
</svg>
