<svg width="58" height="58" viewBox="0 0 58 58" fill="none" xmlns="http://www.w3.org/2000/svg">
<path d="M3.25 14.75C5.66667 10.25 9.14583 6.66667 13.6875 4C18.2292 1.33333 23.25 0 28.75 0C35.6667 0 41.9167 2.45833 47.5 7.375C46 7.125 44.5 7.41667 43 8.25C41 9.41667 39.8958 11.1875 39.6875 13.5625C39.4792 15.9375 40.5417 17.9167 42.875 19.5C45.5417 21.1667 46.875 24.3333 46.875 29C46.875 29.8333 46.2917 31.5833 45.125 34.25C43.9583 36.9167 42.7917 39.375 41.625 41.625L39.875 45L33.125 22C32.9583 20.9167 32.875 20.2083 32.875 19.875C32.875 19.2083 33.0833 18.6667 33.5 18.25C33.9167 17.6667 34.25 17.375 34.5 17.375H37.75V14.75H20.375V17.375H21C21.25 17.375 21.7917 17.7917 22.625 18.625C22.7917 18.7917 23.5833 20.6667 25 24.25L27.5 32.625L22.125 45.125L16.125 20.125C16.2917 18.9583 16.5 18.2917 16.75 18.125C17 17.625 17.3333 17.375 17.75 17.375H17.875V14.75H3.25ZM6.625 19.125C5.70833 17.9583 4.75 17.375 3.75 17.375H2.25C0.75 20.5417 0 24.3333 0 28.75C0 34.5833 1.625 39.875 4.875 44.625C8.125 49.375 12.375 52.875 17.625 55.125L6.625 19.125ZM53.5 14.625C54.1667 17.375 53.9583 20.4167 52.875 23.75C50.625 31.0833 46.5 41.5833 40.5 55.25C45.6667 53 49.7917 49.5208 52.875 44.8125C55.9583 40.1042 57.5 34.875 57.5 29.125C57.5 23.7917 56.1667 18.9583 53.5 14.625ZM29.375 38.875L22 56.875C24.5 57.4583 26.75 57.75 28.75 57.75C30.75 57.75 33.0833 57.4583 35.75 56.875L29.375 38.875Z" fill="black"/>
</svg>
