<svg width="33" height="34" fill="none" xmlns="http://www.w3.org/2000/svg"><path fill-rule="evenodd" clip-rule="evenodd" d="M12.82 4.158a522.68 522.68 0 00-3.653 3.674c0 .024 7.309 7.334 7.333 7.334.024 0 7.333-7.31 7.333-7.334 0-.028-7.311-7.334-7.338-7.332-.012 0-1.666 1.647-3.675 3.658zm-9.167 9.167A522.788 522.788 0 000 16.999c0 .024 7.31 7.334 7.333 7.334.024 0 7.334-7.31 7.334-7.334 0-.028-7.312-7.334-7.338-7.332a450.1 450.1 0 00-3.676 3.658zm18.333 0a521.856 521.856 0 00-3.653 3.674c0 .024 7.31 7.334 7.334 7.334.024 0 7.333-7.31 7.333-7.334 0-.028-7.312-7.334-7.338-7.332-.012 0-1.667 1.647-3.676 3.658zm-9.166 9.167a523.455 523.455 0 00-3.653 3.674c0 .024 7.309 7.334 7.333 7.334.024 0 7.333-7.31 7.333-7.334 0-.028-7.311-7.334-7.338-7.332-.012.001-1.666 1.647-3.675 3.658z" fill="#F19100"/></svg>