<svg width="123" height="123" fill="none" xmlns="http://www.w3.org/2000/svg"><path fill-rule="evenodd" clip-rule="evenodd" d="M123 61.5c0 15.646-5.843 29.927-15.465 40.781V35.232h9.589C120.892 43.199 123 52.103 123 61.5zm-37.043 51.012H66.78v10.265a62.72 62.72 0 01-5.28.223c-12.804 0-24.694-3.913-34.54-10.608.148-4.419.873-8.631 2.177-12.637 1.575-4.515 3.728-8.505 6.458-11.97 2.835-3.465 6.195-6.195 10.08-8.19 3.99-1.995 8.348-2.992 13.073-2.992 5.985 0 11.497 1.47 16.537 4.41 4.404 2.516 7.961 5.994 10.672 10.433v21.066zM8.684 93.026C3.17 83.807 0 73.024 0 61.5 0 27.535 27.535 0 61.5 0c16.027 0 30.622 6.13 41.568 16.175H50.205v19.058h35.752v28.473c-7.353-4.213-16.16-6.319-26.422-6.319-7.77 0-14.962 1.523-21.577 4.568-6.615 2.94-12.39 6.983-17.325 12.127-4.83 5.04-8.663 10.973-11.498 17.798-.155.38-.305.763-.45 1.146z" fill="#572052"/></svg>