<svg width="382" height="272" fill="none" xmlns="http://www.w3.org/2000/svg"><path fill="#138DD1" d="M266 228.014h72v7.636h-72z"/><path opacity=".5" fill="#138DD1" d="M266 242.396h43.636v6.545H266zm0 10.696h43.636v6.55H266z"/><path d="M258.5 257V132c0-6.904 5.596-12.5 12.5-12.5h64c6.904 0 12.5 5.596 12.5 12.5v125c0 6.904-5.596 12.5-12.5 12.5h-64c-6.904 0-12.5-5.596-12.5-12.5z" stroke="#138DD1" stroke-width="5"/><circle cx="271" cy="137" r="5" fill="#138DD1"/><path fill="#138DD1" d="M327 132h13v2h-13zm0 4h13v2h-13zm0 4h13v2h-13z"/><circle cx="304" cy="181" r="23" fill="#138DD1"/><circle cx="16.512" cy="39.431" r="2.5" transform="rotate(-5 16.512 39.431)" fill="#138DD1"/><circle cx="26.474" cy="38.56" r="2.5" transform="rotate(-5 26.474 38.56)" fill="#138DD1"/><circle cx="36.435" cy="37.688" r="2.5" transform="rotate(-5 36.435 37.688)" fill="#138DD1"/><circle cx="73.238" cy="131.337" r="33" transform="rotate(-5 73.238 131.337)" fill="#138DD1"/><circle cx="20.614" cy="57.643" r="5" transform="rotate(-5 20.614 57.643)" fill="#138DD1"/><path fill="#138DD1" d="M33.26 53.024l47.817-4.183.61 6.973-47.817 4.183zm125.414 33.697L322.05 72.427l1.22 13.947-163.376 14.294z"/><path opacity=".5" fill="#138DD1" d="M161.027 113.618l97.627-8.541.872 9.962-97.627 8.54zm1.569 17.932l97.627-8.541.872 9.962-97.627 8.54z"/><rect x="167.309" y="156.735" width="60" height="15" rx="7.5" transform="rotate(-5 167.309 156.735)" stroke="#138DD1" stroke-width="5"/><path fill-rule="evenodd" clip-rule="evenodd" d="M7.714 70.818l127.014-11.112 12.987 148.433-122.034 10.676a5 5 0 01-5.417-4.545L7.714 70.818zm144.982 136.885L139.709 59.27l224.642-19.654 6.602 75.462 5.949 67.99a5.001 5.001 0 01-4.545 5.417L348 190.616v5.019l24.792-2.169c5.502-.481 9.572-5.332 9.091-10.834l-5.949-67.99-6.602-75.462-.218-2.49-.217-2.49-1.308-14.944-.218-2.49-.218-2.49-.435-4.982c-.482-5.501-5.332-9.571-10.834-9.09L9.208 30.534c-5.501.482-9.571 5.332-9.09 10.834l.436 4.98.218 2.491.218 2.49 1.307 14.944.218 2.49.218 2.49 12.55 143.453c.481 5.502 5.332 9.571 10.834 9.09l122.033-10.677 2.491-.217 2.49-.218L258 203.509l1-.088v-5.019l-1.436.126-104.868 9.175zM136.783 54.507l227.133-19.872-1.308-14.943L5.971 50.894l1.307 14.943 129.505-11.33zM361.737 9.73l.435 4.981L5.535 45.913l-.436-4.981a5 5 0 014.545-5.417L356.32 5.185a5 5 0 015.417 4.545z" fill="#138DD1"/><path fill="#138DD1" d="M256 216h94v5h-94z"/><path fill-rule="evenodd" clip-rule="evenodd" d="M289.458 117a13.511 13.511 0 00-.458 3.5c0 7.456 6.044 13.5 13.5 13.5s13.5-6.044 13.5-13.5c0-1.21-.159-2.384-.458-3.5h-5.294a8.5 8.5 0 11-15.496 0h-5.294z" fill="#138DD1"/></svg>