<?xml version="1.0" standalone="no"?>
<!DOCTYPE svg PUBLIC "-//W3C//DTD SVG 20010904//EN"
 "http://www.w3.org/TR/2001/REC-SVG-20010904/DTD/svg10.dtd">
<svg version="1.0" xmlns="http://www.w3.org/2000/svg"
 width="700.000000pt" height="700.000000pt" viewBox="0 0 700.000000 700.000000"
 preserveAspectRatio="xMidYMid meet">
<metadata>
Created by potrace 1.11, written by Peter Selinger 2001-2013
</metadata>
<g transform="translate(0.000000,700.000000) scale(0.100000,-0.100000)"
fill="#000000" stroke="none">
<path d="M3278 6995 c-1 -1 -42 -5 -89 -9 -47 -4 -95 -8 -105 -10 -10 -2 -45
-7 -78 -11 -89 -10 -200 -32 -346 -66 -348 -83 -747 -255 -1055 -456 -684
-447 -1184 -1096 -1435 -1863 -28 -87 -75 -256 -85 -311 -3 -13 -11 -58 -20
-99 -29 -147 -35 -193 -52 -370 -15 -158 -8 -606 11 -707 2 -10 7 -43 10 -73
7 -62 11 -84 31 -190 19 -97 19 -100 45 -200 21 -85 73 -257 89 -295 5 -11 26
-65 46 -120 61 -159 238 -516 250 -503 1 2 19 44 40 93 200 486 556 955 970
1277 331 258 779 479 1143 563 9 2 45 11 80 20 35 8 86 18 115 21 29 4 55 8
58 10 3 1 28 6 55 9 27 4 60 8 74 10 41 7 289 19 380 18 93 0 312 -11 375 -18
85 -11 234 -32 280 -40 233 -44 503 -135 715 -241 58 -29 106 -51 108 -50 2 2
4 1086 2 1541 l0 70 -1017 0 -1016 0 1 515 c0 283 1 527 1 543 l1 27 1503 0
1502 0 -30 28 c-178 161 -409 325 -640 455 -84 47 -331 167 -344 167 -4 0 -25
9 -47 19 -133 64 -532 174 -749 207 -27 4 -57 9 -65 10 -8 2 -42 6 -76 9 -33
4 -74 9 -90 11 -33 5 -540 14 -546 9z"/>
<path d="M6120 3086 l0 -1909 31 39 c17 21 34 41 38 44 3 3 22 25 41 50 19 25
38 50 43 55 78 97 215 305 289 440 51 93 148 290 148 300 0 2 11 28 24 57 57
127 151 421 182 573 16 77 54 301 60 350 4 33 9 76 11 95 8 69 10 517 2 595
-15 162 -21 220 -24 225 -2 3 -6 30 -10 60 -3 30 -8 63 -11 72 -5 18 -11 46
-20 93 -12 72 -66 269 -99 370 -40 120 -142 374 -157 390 -5 6 -114 10 -278
10 l-270 0 0 -1909z"/>
<path d="M3208 2635 c-2 -1 -32 -5 -68 -8 -36 -3 -90 -11 -120 -17 -30 -6 -68
-14 -83 -16 -60 -11 -216 -68 -312 -114 -599 -287 -1015 -950 -1081 -1725 -13
-158 -18 -144 61 -197 39 -26 84 -54 100 -63 17 -9 57 -32 90 -51 100 -57 293
-149 420 -199 107 -42 339 -119 390 -129 11 -3 58 -13 105 -24 47 -11 112 -25
145 -31 33 -6 71 -13 85 -16 28 -5 79 -12 155 -21 28 -3 66 -8 85 -11 47 -6
501 -11 568 -5 l52 4 0 292 0 293 540 0 c297 0 542 2 545 5 3 3 5 273 5 602
l0 596 -42 63 c-288 428 -760 707 -1293 766 -71 8 -339 13 -347 6z"/>
</g>
</svg>
