<svg version="1.0" xmlns="http://www.w3.org/2000/svg" width="933.333" height="933.333" viewBox="0 0 700 700"><path d="M327.8.5c-.1.1-4.2.5-8.9.9s-9.5.8-10.5 1c-1 .2-4.5.7-7.8 1.1-8.9 1-20 3.2-34.6 6.6-34.8 8.3-74.7 25.5-105.5 45.6C92.1 100.4 42.1 165.3 17 242c-2.8 8.7-7.5 25.6-8.5 31.1-.3 1.3-1.1 5.8-2 9.9-2.9 14.7-3.5 19.3-5.2 37-1.5 15.8-.8 60.6 1.1 70.7.2 1 .7 4.3 1 7.3.7 6.2 1.1 8.4 3.1 19 1.9 9.7 1.9 10 4.5 20 2.1 8.5 7.3 25.7 8.9 29.5.5 1.1 2.6 6.5 4.6 12 6.1 15.9 23.8 51.6 25 50.3.1-.2 1.9-4.4 4-9.3 20-48.6 55.6-95.5 97-127.7 33.1-25.8 77.9-47.9 114.3-56.3.9-.2 4.5-1.1 8-2 3.5-.8 8.6-1.8 11.5-2.1 2.9-.4 5.5-.8 5.8-1 .3-.1 2.8-.6 5.5-.9 2.7-.4 6-.8 7.4-1 4.1-.7 28.9-1.9 38-1.8 9.3 0 31.2 1.1 37.5 1.8 8.5 1.1 23.4 3.2 28 4 23.3 4.4 50.3 13.5 71.5 24.1 5.8 2.9 10.6 5.1 10.8 5 .2-.2.4-108.6.2-154.1v-7H285.7l.1-51.5c0-28.3.1-52.7.1-54.3l.1-2.7h300.5l-3-2.8c-17.8-16.1-40.9-32.5-64-45.5C511.1 39 486.4 27 485.1 27c-.4 0-2.5-.9-4.7-1.9-13.3-6.4-53.2-17.4-74.9-20.7-2.7-.4-5.7-.9-6.5-1-.8-.2-4.2-.6-7.6-.9-3.3-.4-7.4-.9-9-1.1-3.3-.5-54-1.4-54.6-.9zM612 391.4v190.9l3.1-3.9c1.7-2.1 3.4-4.1 3.8-4.4.3-.3 2.2-2.5 4.1-5 1.9-2.5 3.8-5 4.3-5.5 7.8-9.7 21.5-30.5 28.9-44 5.1-9.3 14.8-29 14.8-30 0-.2 1.1-2.8 2.4-5.7 5.7-12.7 15.1-42.1 18.2-57.3 1.6-7.7 5.4-30.1 6-35 .4-3.3.9-7.6 1.1-9.5.8-6.9 1-51.7.2-59.5-1.5-16.2-2.1-22-2.4-22.5-.2-.3-.6-3-1-6-.3-3-.8-6.3-1.1-7.2-.5-1.8-1.1-4.6-2-9.3-1.2-7.2-6.6-26.9-9.9-37-4-12-14.2-37.4-15.7-39-.5-.6-11.4-1-27.8-1h-27v190.9zm-291.2 45.1c-.2.1-3.2.5-6.8.8-3.6.3-9 1.1-12 1.7-3 .6-6.8 1.4-8.3 1.6-6 1.1-21.6 6.8-31.2 11.4-59.9 28.7-101.5 95-108.1 172.5-1.3 15.8-1.8 14.4 6.1 19.7 3.9 2.6 8.4 5.4 10 6.3 1.7.9 5.7 3.2 9 5.1 10 5.7 29.3 14.9 42 19.9 10.7 4.2 33.9 11.9 39 12.9 1.1.3 5.8 1.3 10.5 2.4 4.7 1.1 11.2 2.5 14.5 3.1 3.3.6 7.1 1.3 8.5 1.6 2.8.5 7.9 1.2 15.5 2.1 2.8.3 6.6.8 8.5 1.1 4.7.6 50.1 1.1 56.8.5l5.2-.4v-58.5h54c29.7 0 54.2-.2 54.5-.5.3-.3.5-27.3.5-60.2V520l-4.2-6.3c-28.8-42.8-76-70.7-129.3-76.6-7.1-.8-33.9-1.3-34.7-.6z"/></svg>