<svg width="33" height="34" viewBox="0 0 33 34" fill="none" xmlns="http://www.w3.org/2000/svg">
<path fill-rule="evenodd" clip-rule="evenodd" d="M12.8196 4.15765C10.8105 6.16852 9.16667 7.82205 9.16667 7.83215C9.16667 7.85615 16.476 15.1658 16.5 15.1658C16.524 15.1658 23.8333 7.85615 23.8333 7.83215C23.8333 7.80417 16.5217 0.498259 16.4954 0.5C16.4828 0.500844 14.8287 2.14679 12.8196 4.15765ZM3.65292 13.3247C1.6438 15.3356 0 16.9891 0 16.9992C0 17.0232 7.30934 24.3329 7.33333 24.3329C7.35733 24.3329 14.6667 17.0232 14.6667 16.9992C14.6667 16.9713 7.35502 9.66535 7.32877 9.66709C7.31615 9.66793 5.66203 11.3139 3.65292 13.3247ZM21.9863 13.3247C19.9771 15.3356 18.3333 16.9891 18.3333 16.9992C18.3333 17.0232 25.6427 24.3329 25.6667 24.3329C25.6907 24.3329 33 17.0232 33 16.9992C33 16.9713 25.6884 9.66535 25.6621 9.66709C25.6495 9.66793 23.9954 11.3139 21.9863 13.3247ZM12.8196 22.4918C10.8105 24.5027 9.16667 26.1562 9.16667 26.1663C9.16667 26.1903 16.476 33.5 16.5 33.5C16.524 33.5 23.8333 26.1903 23.8333 26.1663C23.8333 26.1384 16.5217 18.8324 16.4954 18.8342C16.4828 18.835 14.8287 20.481 12.8196 22.4918Z" fill="#F19100"/>
</svg>
