<svg width="123" height="123" viewBox="0 0 123 123" fill="none" xmlns="http://www.w3.org/2000/svg">
<path fill-rule="evenodd" clip-rule="evenodd" d="M123 61.5C123 77.146 117.157 91.4273 107.535 102.281V35.2325H117.124C120.892 43.1981 123 52.1029 123 61.5ZM85.9575 112.512H66.78V122.777C65.0397 122.924 63.2787 123 61.5 123C48.6962 123 36.8062 119.087 26.9606 112.392C27.1076 107.973 27.8333 103.761 29.1375 99.755C30.7125 95.24 32.865 91.25 35.595 87.785C38.43 84.32 41.79 81.59 45.675 79.595C49.665 77.6 54.0225 76.6025 58.7475 76.6025C64.7325 76.6025 70.245 78.0725 75.285 81.0125C79.6886 83.5288 83.2461 87.0067 85.9575 91.446V112.512ZM8.68429 93.0263C3.16949 83.8073 0 73.0238 0 61.5C0 27.5345 27.5345 0 61.5 0C77.5271 0 92.1224 6.13073 103.068 16.175H50.205V35.2325H85.9575V63.7056C78.6042 59.4935 69.7967 57.3875 59.535 57.3875C51.765 57.3875 44.5725 58.91 37.9575 61.955C31.3425 64.895 25.5675 68.9375 20.6325 74.0825C15.8025 79.1225 11.97 85.055 9.135 91.88C8.98039 92.2606 8.83015 92.6427 8.68429 93.0263Z" fill="#572052"/>
</svg>
