<svg width="382" height="272" viewBox="0 0 382 272" fill="none" xmlns="http://www.w3.org/2000/svg">
<rect x="266" y="228.014" width="72" height="7.63636" fill="#138DD1"/>
<rect opacity="0.5" x="266" y="242.396" width="43.6364" height="6.54545" fill="#138DD1"/>
<rect opacity="0.5" x="266" y="253.092" width="43.6364" height="6.55" fill="#138DD1"/>
<path d="M258.5 257V219.5V132C258.5 125.096 264.096 119.5 271 119.5H279.5H291.25H303H314.75H326.5H335C341.904 119.5 347.5 125.096 347.5 132V219.5V257C347.5 263.904 341.904 269.5 335 269.5H271C264.096 269.5 258.5 263.904 258.5 257Z" stroke="#138DD1" stroke-width="5"/>
<circle cx="271" cy="137" r="5" fill="#138DD1"/>
<rect x="327" y="132" width="13" height="2" fill="#138DD1"/>
<rect x="327" y="136" width="13" height="2" fill="#138DD1"/>
<rect x="327" y="140" width="13" height="2" fill="#138DD1"/>
<circle cx="304" cy="181" r="23" fill="#138DD1"/>
<circle cx="16.5116" cy="39.4315" r="2.5" transform="rotate(-5 16.5116 39.4315)" fill="#138DD1"/>
<circle cx="26.4735" cy="38.56" r="2.5" transform="rotate(-5 26.4735 38.56)" fill="#138DD1"/>
<circle cx="36.4354" cy="37.6884" r="2.5" transform="rotate(-5 36.4354 37.6884)" fill="#138DD1"/>
<circle cx="73.2376" cy="131.337" r="33" transform="rotate(-5 73.2376 131.337)" fill="#138DD1"/>
<circle cx="20.6145" cy="57.6433" r="5" transform="rotate(-5 20.6145 57.6433)" fill="#138DD1"/>
<rect x="33.26" y="53.0237" width="48" height="7" transform="rotate(-5 33.26 53.0237)" fill="#138DD1"/>
<rect x="158.674" y="86.7212" width="164" height="14" transform="rotate(-5 158.674 86.7212)" fill="#138DD1"/>
<rect opacity="0.5" x="161.027" y="113.618" width="98" height="10" transform="rotate(-5 161.027 113.618)" fill="#138DD1"/>
<rect opacity="0.5" x="162.596" y="131.55" width="98" height="10" transform="rotate(-5 162.596 131.55)" fill="#138DD1"/>
<rect x="167.309" y="156.735" width="60" height="15" rx="7.5" transform="rotate(-5 167.309 156.735)" stroke="#138DD1" stroke-width="5"/>
<path fill-rule="evenodd" clip-rule="evenodd" d="M7.71364 70.8179L134.728 59.7055L147.715 208.139L25.6808 218.815C22.9299 219.056 20.5047 217.021 20.2641 214.27L7.71364 70.8179ZM152.696 207.703L139.709 59.2697L364.351 39.6161L370.953 115.078L376.902 183.068C377.142 185.819 375.107 188.244 372.357 188.485L348 190.616V195.635L372.792 193.466C378.294 192.985 382.364 188.134 381.883 182.632L375.934 114.642L369.332 39.1803L369.114 36.6898L368.897 34.1994L367.589 19.2564L367.371 16.766L367.153 14.2755L366.718 9.29449C366.236 3.79266 361.386 -0.277244 355.884 0.204102L9.20838 30.5343C3.70655 31.0156 -0.363358 35.866 0.11799 41.3678L0.553769 46.3488L0.771658 48.8393L0.989547 51.3298L2.29688 66.2727L2.51477 68.7632L2.73266 71.2536L15.2831 214.706C15.7644 220.208 20.6148 224.277 26.1166 223.796L148.15 213.119L150.641 212.902L153.131 212.684L258 203.509L259 203.421V198.402L257.564 198.528L152.696 207.703ZM136.783 54.5066L363.916 34.6351L362.608 19.6922L5.97052 50.894L7.27786 65.8369L136.783 54.5066ZM361.737 9.73027L362.172 14.7112L5.53474 45.913L5.09896 40.932C4.85829 38.1811 6.89324 35.7559 9.64416 35.5153L356.32 5.18508C359.071 4.9444 361.496 6.97936 361.737 9.73027Z" fill="#138DD1"/>
<rect x="256" y="216" width="94" height="5" fill="#138DD1"/>
<path fill-rule="evenodd" clip-rule="evenodd" d="M289.458 117C289.159 118.116 289 119.29 289 120.5C289 127.956 295.044 134 302.5 134C309.956 134 316 127.956 316 120.5C316 119.29 315.841 118.116 315.542 117H310.248C310.731 118.067 311 119.252 311 120.5C311 125.194 307.194 129 302.5 129C297.806 129 294 125.194 294 120.5C294 119.252 294.269 118.067 294.752 117H289.458Z" fill="#138DD1"/>
</svg>
